<svg width="79" height="79" viewBox="0 0 79 79" fill="none" xmlns="http://www.w3.org/2000/svg">
<rect opacity="0.1" width="79" height="79" rx="15" fill="#161C2D"/>
<path d="M47.6414 32.3582C45.5264 30.2522 42.7634 29.1992 40.0004 29.1992V39.9992L32.3594 47.6402C36.5804 51.8612 43.4114 51.8612 47.6324 47.6402C51.8534 43.4192 51.8534 36.5792 47.6414 32.3582Z" fill="#161C2D"/>
<path opacity="0.5" fill-rule="evenodd" clip-rule="evenodd" d="M22 40C22 30.055 30.055 22 40 22C49.945 22 58 30.055 58 40C58 49.936 49.945 58 40 58C30.055 58 22 49.945 22 40ZM25.6001 39.9996C25.6001 47.9556 32.0441 54.3996 40.0001 54.3996C47.9561 54.3996 54.4001 47.9556 54.4001 39.9996C54.4001 32.0436 47.9561 25.5996 40.0001 25.5996C32.0441 25.5996 25.6001 32.0436 25.6001 39.9996Z" fill="#161C2D"/>
</svg>
